# xmcd CD database file
#
# Track frame offsets:
#	150
#	13270
#	23831
#	37470
#	48490
#	59286
#	70893
#	84239
#	96891
#	110977
#	123524
#	137199
#	149183
#	160864
#	174018
#	187340
#	201020
#	212417
#
# Disc length: 2990 seconds
#
# Revision: 0
# Processed by: cddbd v1.5.1PL0 Copyright (c) Steve Scherf et al.
# Submitted via: Feurio! 1.68 - http://www.feurio.com
#
DISCID=140bac12
DTITLE=Various Artist - Delta Blues 1940-1951, CD2
DYEAR=1900
DGENRE=
TTITLE0=Bobo Thomas - Catfish Blues
TTITLE1=L.C.Green - Little Schoolgirl
TTITLE2=Slim Pickens - Notoriety Woman
TTITLE3=Bluesboy Bill - Come On Babe
TTITLE4=Honeyboy Edwards - Build A Cave
TTITLE5=Honeyboy Edwards - Who May Your Regular Be ?
TTITLE6=Howlin' Wolf - Moanin' At Midnight
TTITLE7=B.B.King - Mistreated Woman
TTITLE8=Tommy Lee - Highway 80 Blues
TTITLE9=Elmore James - Dust My Broom
TTITLE10=Sonny Boy Williamson (Rice Miller) - Eyesight To The Blind
TTITLE11=Luther Huff - 1951 Blues
TTITLE12=Sam Davis - Going Home Blues
TTITLE13=Tommy Lee - Packin' Up My Blues
TTITLE14=Sonny Boy Williamson (Rice Miller) - Mighty Long Time
TTITLE15=Doctor Ross - Little Soldier Boy
TTITLE16=Willie Love - Feed My Body To The Fishes
TTITLE17=Big Joe Williams - Delta Blues
EXTD=
EXTT0=
EXTT1=
EXTT2=
EXTT3=
EXTT4=
EXTT5=
EXTT6=
EXTT7=
EXTT8=
EXTT9=
EXTT10=
EXTT11=
EXTT12=
EXTT13=
EXTT14=
EXTT15=
EXTT16=
EXTT17=
PLAYORDER=
